<?xml version="1.0" standalone="no"?>
<!DOCTYPE svg PUBLIC "-//W3C//DTD SVG 20010904//EN"
 "http://www.w3.org/TR/2001/REC-SVG-20010904/DTD/svg10.dtd">
<svg version="1.0" xmlns="http://www.w3.org/2000/svg"
 width="512.000000pt" height="512.000000pt" viewBox="0 0 512.000000 512.000000"
 preserveAspectRatio="xMidYMid meet">

<g transform="translate(0.000000,512.000000) scale(0.100000,-0.100000)"
fill="#000000" stroke="none">
<path d="M730 3513 c0 -1263 1 -1275 54 -1430 56 -163 173 -364 322 -553 95
-119 434 -455 589 -582 235 -193 486 -375 727 -525 l131 -83 41 23 c82 45 425
277 561 379 375 281 644 532 870 813 151 187 221 307 289 487 72 194 69 129
73 1451 l4 1187 -1831 0 -1830 0 0 -1167z m3598 87 c3 -1009 -3 -1227 -33
-1345 -61 -234 -193 -447 -438 -710 -238 -256 -512 -485 -884 -739 -153 -104
-401 -256 -418 -256 -16 0 -232 134 -406 251 -619 417 -1048 841 -1239 1224
-123 247 -114 130 -117 1429 -2 616 -1 1126 1 1133 4 11 322 13 1768 11 l1763
-3 3 -995z"/>
<path d="M840 3880 l0 -640 710 0 710 0 0 640 0 640 -710 0 -710 0 0 -640z
m960 270 c150 -252 167 -286 157 -305 -25 -46 -331 -535 -333 -532 -1 1 -79
125 -173 275 l-172 274 168 289 c93 158 172 287 176 286 5 -1 84 -130 177
-287z"/>
<path d="M1488 4178 c-74 -123 -147 -244 -162 -269 l-27 -47 157 -243 c86
-134 160 -248 164 -252 5 -6 259 379 323 489 5 8 -295 518 -318 542 -1 2 -63
-97 -137 -220z"/>
<path d="M2860 3880 l0 -640 710 0 710 0 0 640 0 640 -710 0 -710 0 0 -640z
m855 281 c93 -157 168 -290 168 -297 0 -6 -75 -134 -168 -283 -145 -234 -170
-269 -180 -253 -7 9 -85 133 -174 275 l-162 259 172 294 c94 162 172 294 174
292 1 -2 78 -131 170 -287z"/>
<path d="M3527 4378 c-35 -53 -307 -510 -307 -514 0 -15 325 -503 331 -497 9
9 293 454 309 482 8 16 -16 62 -150 281 -87 145 -161 265 -164 267 -2 3 -11
-6 -19 -19z"/>
<path d="M1285 3133 c43 -11 45 -18 45 -193 0 -175 -2 -182 -45 -193 -11 -2
16 -5 60 -5 44 0 71 2 60 5 -34 8 -45 33 -45 106 l0 68 37 -3 c33 -3 43 -11
93 -78 52 -68 91 -98 130 -100 8 0 -3 14 -24 32 -21 17 -59 59 -83 91 l-44 60
35 29 c64 52 57 135 -14 170 -27 14 -58 18 -130 17 -52 -1 -86 -4 -75 -6z
m202 -38 c32 -37 32 -103 -2 -139 -20 -21 -33 -26 -75 -26 l-50 0 0 93 c0 52
3 97 8 101 4 4 27 6 52 3 32 -4 51 -13 67 -32z"/>
<path d="M3585 3133 c43 -11 45 -18 45 -193 0 -175 -2 -182 -45 -193 -11 -2
16 -5 60 -5 44 0 71 3 60 5 -43 11 -45 18 -45 193 0 175 2 182 45 193 11 2
-16 5 -60 5 -44 0 -71 -3 -60 -5z"/>
<path d="M2330 3103 c0 -10 -3 -29 -6 -43 -5 -25 -5 -25 11 3 15 26 18 27 105
27 l90 0 -10 -24 c-12 -34 -93 -190 -136 -264 -29 -52 -33 -63 -18 -60 12 2
45 63 105 191 l88 187 -115 0 c-102 0 -114 -2 -114 -17z"/>
<path d="M2666 3103 c-2 -10 -8 -46 -11 -80 l-7 -63 55 0 c77 0 112 -29 112
-93 0 -64 -32 -97 -95 -97 -25 0 -51 5 -57 11 -7 7 -20 8 -30 5 -17 -7 -16 -9
6 -27 29 -24 64 -24 117 0 108 49 123 177 26 218 -29 12 -44 13 -73 4 -49 -15
-50 -14 -45 12 3 12 8 39 11 59 l6 37 71 3 c46 2 73 7 76 16 3 9 -17 12 -76
12 -68 0 -81 -3 -86 -17z"/>
<path d="M863 2478 c5 -178 16 -232 71 -361 164 -379 574 -800 1199 -1231
l127 -87 0 920 0 921 -701 0 -701 0 5 -162z m912 -207 c93 -157 168 -290 168
-297 0 -6 -75 -134 -168 -283 -145 -234 -170 -269 -180 -253 -7 9 -85 133
-174 275 l-162 259 172 294 c94 162 172 294 174 292 1 -2 78 -131 170 -287z"/>
<path d="M1587 2488 c-35 -53 -307 -510 -307 -514 0 -15 325 -503 331 -497 9
9 293 454 309 482 8 16 -16 62 -150 281 -87 145 -161 265 -164 267 -2 3 -11
-6 -19 -19z"/>
<path d="M2860 1725 c0 -503 3 -915 6 -915 23 0 415 289 584 431 255 213 530
512 643 699 107 178 156 342 164 553 l6 147 -702 0 -701 0 0 -915z m840 535
c150 -252 167 -286 157 -305 -25 -46 -331 -535 -333 -532 -1 1 -79 125 -173
275 l-172 274 168 289 c93 158 172 287 176 286 5 -1 84 -130 177 -287z"/>
<path d="M3388 2288 c-74 -123 -147 -244 -162 -269 l-27 -47 157 -243 c86
-134 160 -248 164 -252 5 -6 259 379 323 489 5 8 -295 518 -318 542 -1 2 -63
-97 -137 -220z"/>
</g>
</svg>
